<svg width="1200" height="900" viewBox="0 0 1200 900" fill="none" xmlns="http://www.w3.org/2000/svg">
  <defs>
    <linearGradient id="bg" x1="80" y1="80" x2="1120" y2="820" gradientUnits="userSpaceOnUse">
      <stop stop-color="#F8FBFF"/>
      <stop offset="1" stop-color="#EEF4FF"/>
    </linearGradient>
    <linearGradient id="cardBlue" x1="0" y1="0" x2="1" y2="1">
      <stop stop-color="#E2F0FF"/>
      <stop offset="1" stop-color="#CFE7FF"/>
    </linearGradient>
    <linearGradient id="cardGold" x1="0" y1="0" x2="1" y2="1">
      <stop stop-color="#FFF3D6"/>
      <stop offset="1" stop-color="#F9E3A8"/>
    </linearGradient>
    <linearGradient id="cardMint" x1="0" y1="0" x2="1" y2="1">
      <stop stop-color="#E8FAF3"/>
      <stop offset="1" stop-color="#CFEFDE"/>
    </linearGradient>
    <filter id="shadow" x="30" y="30" width="1140" height="840" filterUnits="userSpaceOnUse" color-interpolation-filters="sRGB">
      <feFlood flood-opacity="0" result="BackgroundImageFix"/>
      <feColorMatrix in="SourceAlpha" type="matrix" values="0 0 0 0 0 0 0 0 0 0 0 0 0 0 0 0 0 0 127 0" result="hardAlpha"/>
      <feOffset dy="20"/>
      <feGaussianBlur stdDeviation="25"/>
      <feColorMatrix type="matrix" values="0 0 0 0 0.117647 0 0 0 0 0.227451 0 0 0 0 0.372549 0 0 0 0.12 0"/>
      <feBlend mode="normal" in2="BackgroundImageFix" result="effect1_dropShadow_0_1"/>
      <feBlend mode="normal" in="SourceGraphic" in2="effect1_dropShadow_0_1" result="shape"/>
    </filter>
  </defs>

  <rect width="1200" height="900" rx="48" fill="url(#bg)"/>
  <g opacity="0.35">
    <circle cx="1060" cy="140" r="96" fill="#D4A84B"/>
    <circle cx="1060" cy="140" r="96" fill-opacity="0.08" fill="#D4A84B"/>
    <circle cx="170" cy="760" r="120" fill="#88B9FF"/>
    <circle cx="170" cy="760" r="120" fill-opacity="0.08" fill="#88B9FF"/>
  </g>

  <g filter="url(#shadow)">
    <rect x="80" y="80" width="1040" height="740" rx="36" fill="white"/>
  </g>

  <rect x="120" y="120" width="300" height="38" rx="19" fill="#EEF3FB"/>
  <circle cx="148" cy="139" r="7" fill="#D4A84B"/>
  <circle cx="171" cy="139" r="7" fill="#3C6EF0"/>
  <circle cx="194" cy="139" r="7" fill="#3BAA73"/>
  <rect x="120" y="190" width="340" height="36" rx="18" fill="#F4F7FD"/>
  <rect x="120" y="244" width="430" height="88" rx="26" fill="#1E3A5F"/>
  <text x="160" y="298" fill="white" font-family="Arial, sans-serif" font-size="44" font-weight="700">Teacher Workspace</text>
  <text x="120" y="372" fill="#61708B" font-family="Arial, sans-serif" font-size="28">Manage assessments by subject, review papers,</text>
  <text x="120" y="410" fill="#61708B" font-family="Arial, sans-serif" font-size="28">and open your English tools from one place.</text>

  <rect x="120" y="470" width="300" height="126" rx="28" fill="url(#cardBlue)"/>
  <rect x="440" y="470" width="300" height="126" rx="28" fill="url(#cardMint)"/>
  <rect x="120" y="620" width="300" height="126" rx="28" fill="url(#cardGold)"/>

  <circle cx="178" cy="528" r="26" fill="#1E3A5F"/>
  <rect x="167" y="512" width="22" height="32" rx="6" stroke="white" stroke-width="4"/>
  <line x1="173" y1="522" x2="183" y2="522" stroke="white" stroke-width="4" stroke-linecap="round"/>
  <line x1="173" y1="531" x2="183" y2="531" stroke="white" stroke-width="4" stroke-linecap="round"/>
  <text x="220" y="520" fill="#1E3A5F" font-family="Arial, sans-serif" font-size="24" font-weight="700">English</text>
  <text x="220" y="554" fill="#5E708F" font-family="Arial, sans-serif" font-size="20">Papers, history, intake,</text>
  <text x="220" y="582" fill="#5E708F" font-family="Arial, sans-serif" font-size="20">and teacher tools.</text>

  <circle cx="498" cy="528" r="26" fill="#3BAA73"/>
  <path d="M484 540L496 514L504 530L513 522L522 540" stroke="white" stroke-width="4" stroke-linecap="round" stroke-linejoin="round"/>
  <text x="540" y="520" fill="#175B3E" font-family="Arial, sans-serif" font-size="24" font-weight="700">Math</text>
  <text x="540" y="554" fill="#4E7B67" font-family="Arial, sans-serif" font-size="20">Number work, reasoning,</text>
  <text x="540" y="582" fill="#4E7B67" font-family="Arial, sans-serif" font-size="20">and future problem sets.</text>

  <circle cx="178" cy="678" r="26" fill="#D4A84B"/>
  <path d="M166 664H190C194.418 664 198 667.582 198 672V686C198 690.418 194.418 694 190 694H166C161.582 694 158 690.418 158 686V672C158 667.582 161.582 664 166 664Z" stroke="white" stroke-width="4"/>
  <line x1="168" y1="673" x2="188" y2="673" stroke="white" stroke-width="4" stroke-linecap="round"/>
  <line x1="168" y1="681" x2="182" y2="681" stroke="white" stroke-width="4" stroke-linecap="round"/>
  <text x="220" y="670" fill="#875F12" font-family="Arial, sans-serif" font-size="24" font-weight="700">Vocabulary</text>
  <text x="220" y="704" fill="#8F7437" font-family="Arial, sans-serif" font-size="20">Word study, drills, and</text>
  <text x="220" y="732" fill="#8F7437" font-family="Arial, sans-serif" font-size="20">memory practice.</text>

  <rect x="780" y="190" width="280" height="556" rx="28" fill="#F8FAFD" stroke="#E6ECF6" stroke-width="3"/>
  <text x="818" y="244" fill="#1E3A5F" font-family="Arial, sans-serif" font-size="24" font-weight="700">English Tools</text>

  <rect x="818" y="278" width="204" height="82" rx="20" fill="#EEF4FF"/>
  <circle cx="860" cy="319" r="16" fill="#3C6EF0"/>
  <path d="M852 315H868M852 323H864" stroke="white" stroke-width="3.5" stroke-linecap="round"/>
  <text x="892" y="314" fill="#1E3A5F" font-family="Arial, sans-serif" font-size="19" font-weight="700">View Test</text>
  <text x="892" y="339" fill="#61708B" font-family="Arial, sans-serif" font-size="18">History</text>

  <rect x="818" y="382" width="204" height="82" rx="20" fill="#FFF5DF"/>
  <circle cx="860" cy="423" r="16" fill="#D4A84B"/>
  <path d="M860 415V431M852 423H868" stroke="white" stroke-width="3.5" stroke-linecap="round"/>
  <text x="892" y="418" fill="#7C621D" font-family="Arial, sans-serif" font-size="19" font-weight="700">Paper Intake</text>
  <text x="892" y="443" fill="#9B8242" font-family="Arial, sans-serif" font-size="18">Create drafts</text>

  <rect x="818" y="486" width="204" height="82" rx="20" fill="#EEF7F3"/>
  <circle cx="860" cy="527" r="16" fill="#3BAA73"/>
  <path d="M852 519H868V535H852V519ZM856 523H864V531H856V523Z" stroke="white" stroke-width="3.5" stroke-linejoin="round"/>
  <text x="892" y="522" fill="#1E6346" font-family="Arial, sans-serif" font-size="19" font-weight="700">Paper Manager</text>
  <text x="892" y="547" fill="#51806A" font-family="Arial, sans-serif" font-size="18">Edit and publish</text>

  <rect x="818" y="610" width="204" height="96" rx="24" fill="#1E3A5F"/>
  <text x="850" y="652" fill="#D4A84B" font-family="Arial, sans-serif" font-size="18" font-weight="700">Teacher Flow</text>
  <text x="850" y="682" fill="#E6EDF7" font-family="Arial, sans-serif" font-size="18">Choose a module</text>
  <text x="850" y="708" fill="#E6EDF7" font-family="Arial, sans-serif" font-size="18">Open papers</text>

  <circle cx="1043" cy="656" r="12" fill="#D4A84B"/>
  <circle cx="1043" cy="688" r="12" fill="#D4A84B" fill-opacity="0.6"/>
  <path d="M1038 656L1041 659L1048 651" stroke="#1E3A5F" stroke-width="3.5" stroke-linecap="round" stroke-linejoin="round"/>
  <path d="M1038 688L1041 691L1048 683" stroke="#1E3A5F" stroke-width="3.5" stroke-linecap="round" stroke-linejoin="round"/>
</svg>
